<?xml version="1.0" standalone="no"?>
<!DOCTYPE svg PUBLIC "-//W3C//DTD SVG 20010904//EN"
 "http://www.w3.org/TR/2001/REC-SVG-20010904/DTD/svg10.dtd">
<svg version="1.0" xmlns="http://www.w3.org/2000/svg"
 width="160.000000pt" height="160.000000pt" viewBox="0 0 160.000000 160.000000"
 preserveAspectRatio="xMidYMid meet">
<metadata>
Created by potrace 1.11, written by Peter Selinger 2001-2013
</metadata>
<g transform="translate(0.000000,160.000000) scale(0.100000,-0.100000)"
fill="#000000" stroke="none">
<path d="M550 1561 c0 -10 -3 -40 -7 -66 l-6 -47 43 7 c54 9 194 9 246 1 l39
-7 -3 66 -4 66 -154 -2 c-140 -1 -154 -2 -154 -18z m160 -55 c0 -23 -16 -27
-17 -5 -1 10 2 19 8 19 5 0 9 -6 9 -14z"/>
<path d="M532 1419 c-162 -28 -382 -139 -357 -178 9 -15 1041 -15 1050 0 20
31 -140 123 -280 160 -91 24 -322 35 -413 18z m278 -10 c47 -5 110 -17 140
-26 70 -20 188 -74 220 -101 l25 -21 -24 -1 c-14 0 -43 9 -66 20 -22 11 -77
30 -120 42 -70 19 -104 22 -280 22 -185 0 -207 -2 -298 -27 -54 -14 -112 -33
-129 -42 -17 -8 -43 -15 -57 -15 -25 1 -26 1 -6 16 37 29 151 82 221 103 124
38 239 47 374 30z m73 -115 c48 -8 102 -20 120 -28 28 -13 -6 -14 -308 -15
-195 0 -334 3 -325 8 23 13 155 40 240 49 86 10 149 6 273 -14z"/>
<path d="M118 1154 c17 -8 32 -16 32 -19 0 -2 -9 -22 -20 -43 -44 -84 -51
-140 -49 -416 1 -144 4 -278 6 -298 5 -35 8 -38 38 -38 19 0 43 -9 60 -24 36
-31 62 -32 644 -33 394 -1 509 4 422 17 -33 5 -34 6 -17 23 10 10 26 15 35 13
19 -6 36 3 44 24 3 8 6 -4 6 -27 1 -24 -2 -42 -6 -41 -5 1 -18 -3 -29 -10 -29
-16 -1152 -18 -1167 -3 -21 21 -37 12 -37 -20 0 -28 2 -30 33 -28 17 2 57 -2
87 -9 30 -6 134 -16 230 -22 96 -6 191 -12 210 -15 19 -2 96 -7 170 -11 74 -4
144 -8 155 -9 11 -1 63 -4 115 -5 83 -3 89 -4 45 -10 -38 -5 -25 -7 55 -7 72
0 93 2 65 7 l-40 7 53 2 c33 0 51 -3 47 -9 -3 -5 3 -10 14 -10 24 0 26 20 12
83 -7 28 -6 36 2 29 7 -5 29 -12 50 -15 30 -5 40 -2 50 14 14 22 87 28 87 7 0
-8 7 -5 15 6 10 13 15 44 15 94 0 77 -11 112 -35 112 -12 0 -15 16 -17 68 -1
49 -4 32 -11 -66 -8 -115 -12 -133 -26 -130 -12 2 -16 15 -17 53 l-2 50 8 -50
c4 -31 7 33 8 168 l2 217 24 0 c37 0 84 45 92 87 19 100 -105 166 -177 94 -23
-24 -29 -38 -29 -74 0 -39 5 -49 35 -76 l35 -30 0 -157 c0 -152 -1 -157 -18
-141 -11 10 -36 17 -60 17 l-42 0 0 261 0 261 -36 54 c-20 30 -35 56 -33 58 2
2 18 11 34 19 28 15 -17 16 -585 16 -540 -1 -611 -2 -582 -15z m209 -73 l166
1 -2 -284 c-1 -155 -6 -287 -11 -292 -13 -14 -352 -9 -361 6 -24 38 -23 385 2
498 13 64 30 101 37 82 3 -10 42 -13 169 -11z m321 -32 c34 -10 50 -10 76 -1
18 7 40 12 50 12 9 0 29 6 45 14 55 29 56 23 59 -276 1 -150 -2 -279 -7 -287
-6 -10 -47 -13 -177 -15 -93 0 -172 -5 -176 -10 -14 -21 -20 97 -15 326 3 134
8 253 12 265 7 22 7 22 49 3 22 -10 60 -24 84 -31z m607 12 c31 -99 32 -517 1
-548 -3 -4 -85 -9 -181 -12 -168 -6 -174 -5 -179 14 -3 11 -6 144 -6 295 l0
275 179 -3 c165 -3 180 -4 186 -21z m-553 7 c-9 -9 -15 -9 -24 0 -9 9 -7 12
12 12 19 0 21 -3 12 -12z m818 -147 c0 -13 -9 -20 -32 -24 -40 -6 -56 6 -38
28 19 22 70 20 70 -4z m-114 -468 c4 -21 8 -54 8 -73 1 -33 -1 -35 -36 -38
l-38 -3 -1 53 c0 29 -2 63 -5 76 -3 19 0 22 31 22 32 0 35 -3 41 -37z m121
-90 c-2 -16 -4 -5 -4 22 0 28 2 40 4 28 2 -13 2 -35 0 -50z"/>
<path d="M160 820 l0 -60 34 0 c19 0 38 5 41 10 3 6 13 10 21 10 11 0 12 -5 6
-17 -15 -29 -34 -168 -26 -197 6 -25 9 -26 78 -26 40 0 75 3 78 6 4 3 -5 30
-18 59 -30 65 -24 102 25 164 22 27 31 50 31 75 l0 36 -135 0 -135 0 0 -60z"/>
<path d="M552 823 l3 -58 38 -3 c21 -2 37 1 37 7 0 6 7 11 15 11 11 0 14 -7
10 -22 -22 -96 -33 -167 -28 -190 5 -27 7 -28 77 -28 40 0 75 3 79 6 3 3 -3
26 -14 51 -29 69 -25 103 21 164 28 37 40 64 40 86 l0 33 -140 0 -141 0 3 -57z"/>
<path d="M952 823 c3 -58 3 -58 37 -61 19 -2 37 2 41 8 4 7 12 11 17 9 6 -2 1
-46 -10 -105 -11 -56 -17 -108 -14 -117 5 -14 21 -17 82 -17 83 0 86 2 60 63
-27 65 -21 94 38 176 23 32 27 46 22 70 l-7 31 -134 0 -135 0 3 -57z"/>
<path d="M1358 213 c6 -2 18 -2 25 0 6 3 1 5 -13 5 -14 0 -19 -2 -12 -5z"/>
<path d="M30 113 c0 -24 32 -93 44 -93 110 -3 1174 2 1206 6 54 6 56 8 68 59
l9 40 -664 0 c-518 0 -663 -3 -663 -12z"/>
</g>
</svg>
